<svg xmlns="http://www.w3.org/2000/svg" width="16.323" height="10.404" viewBox="0 0 16.323 10.404">
  <g id="eye_8_" data-name="eye (8)" transform="translate(0 -92.835)">
    <g id="Group_467" data-name="Group 467" transform="translate(0 92.835)">
      <g id="Group_466" data-name="Group 466" transform="translate(0 0)">
        <path id="Path_1168" data-name="Path 1168" d="M16.219,97.719c-.146-.2-3.62-4.884-8.058-4.884S.249,97.52.1,97.719a.539.539,0,0,0,0,.635c.146.2,3.62,4.884,8.058,4.884s7.912-4.685,8.058-4.884A.538.538,0,0,0,16.219,97.719Zm-8.058,4.443c-3.269,0-6.1-3.109-6.938-4.126.837-1.017,3.662-4.125,6.938-4.125s6.1,3.109,6.938,4.126C14.262,99.055,11.437,102.162,8.161,102.162Z" transform="translate(0 -92.835)" fill="#009792"/>
      </g>
    </g>
    <g id="Group_469" data-name="Group 469" transform="translate(4.933 94.808)">
      <g id="Group_468" data-name="Group 468" transform="translate(0 0)">
        <path id="Path_1169" data-name="Path 1169" d="M157.951,154.725a3.229,3.229,0,1,0,3.229,3.229A3.232,3.232,0,0,0,157.951,154.725Zm0,5.381a2.152,2.152,0,1,1,2.152-2.152A2.155,2.155,0,0,1,157.951,160.106Z" transform="translate(-154.722 -154.725)" fill="#009792"/>
      </g>
    </g>
  </g>
</svg>
