<svg xmlns="http://www.w3.org/2000/svg" width="10.596" height="13.618" viewBox="0 0 10.596 13.618">
  <path id="Path_36" data-name="Path 36" d="M14.8,12.828l-.9-.9V8.436a4.255,4.255,0,0,0-3.143-4.414V3.548a1.048,1.048,0,0,0-2.1,0v.475A4.243,4.243,0,0,0,5.521,8.436v3.492l-.9.9a.7.7,0,0,0,.489,1.194h9.2a.7.7,0,0,0,.5-1.194Zm-2.3-.2H6.918V8.436A2.863,2.863,0,0,1,9.711,5.293,2.863,2.863,0,0,1,12.5,8.436ZM9.711,16.118a1.4,1.4,0,0,0,1.4-1.4H8.315A1.4,1.4,0,0,0,9.711,16.118Z" transform="translate(-4.414 -2.5)" fill="#fff"/>
</svg>
