<svg id="medical-mask" xmlns="http://www.w3.org/2000/svg" width="34.758" height="27.031" viewBox="0 0 34.758 27.031">
  <path id="Path_1" data-name="Path 1" d="M30.937,61.3s-1.974-.016-2.145-.016a11.212,11.212,0,0,1-7.4-2.863,6.075,6.075,0,0,0-8.033,0,11.212,11.212,0,0,1-7.4,2.863c-.172,0-2.145.016-2.145.016A3.826,3.826,0,0,0,0,65.123v4.252A8.081,8.081,0,0,0,6.12,77.2a12.773,12.773,0,0,0,22.518,0,8.081,8.081,0,0,0,6.12-7.82V65.123A3.826,3.826,0,0,0,30.937,61.3ZM14.709,59.951a4.038,4.038,0,0,1,5.339,0A13.3,13.3,0,0,0,28.12,63.3v1.608h-.245a13.816,13.816,0,0,1-8.965-3.254,3.985,3.985,0,0,0-.492-.389,1.979,1.979,0,0,0-.655-.253,2.015,2.015,0,0,0-1.338.2,3.456,3.456,0,0,0-.576.438,13.816,13.816,0,0,1-8.965,3.254H6.638V63.305A13.3,13.3,0,0,0,14.709,59.951ZM2.037,69.376V65.123a1.787,1.787,0,0,1,1.785-1.785H4.6V71.16A12.746,12.746,0,0,0,5.073,74.6a6.043,6.043,0,0,1-3.036-5.227ZM17.379,81.9A10.753,10.753,0,0,1,6.638,71.16V66.949h.245a15.854,15.854,0,0,0,10.286-3.74c.044-.037.089-.074.129-.115.02-.02.052-.07.084-.068s.059.049.076.066c.041.041.086.079.131.117a15.854,15.854,0,0,0,10.286,3.74h.245V71.16A10.753,10.753,0,0,1,17.379,81.9ZM32.721,69.376A6.043,6.043,0,0,1,29.685,74.6a12.746,12.746,0,0,0,.471-3.442V63.339h.78a1.787,1.787,0,0,1,1.785,1.785v4.252Z" transform="translate(0 -56.906)" fill="#009792"/>
  <path id="Path_2" data-name="Path 2" d="M156.29,312.041a19.786,19.786,0,0,1-12.691,0,1.018,1.018,0,1,0-.72,1.9,21.8,21.8,0,0,0,14.131,0,1.018,1.018,0,1,0-.72-1.9Z" transform="translate(-132.566 -294.66)" fill="#009792"/>
  <path id="Path_3" data-name="Path 3" d="M143.85,242.027a26.137,26.137,0,0,1-14.734,0,1.018,1.018,0,1,0-.638,1.934,28.149,28.149,0,0,0,16.01,0,1.018,1.018,0,1,0-.638-1.934Z" transform="translate(-119.105 -229.412)" fill="#009792"/>
</svg>
