<svg xmlns="http://www.w3.org/2000/svg" width="97.777" height="25.103" viewBox="0 0 97.777 25.103">
  <path id="Path_4" data-name="Path 4" d="M4.351-3.113,6.241-3.5a.7.7,0,0,0,.4-.246.711.711,0,0,0,.164-.473V-18.9H2.763a.473.473,0,0,0-.359.126.824.824,0,0,0-.183.328L1.39-15.677H.583v-4.272H15.415v4.272H14.6l-.832-2.772a.87.87,0,0,0-.176-.328.435.435,0,0,0-.34-.126h-4.1V-4.222a.689.689,0,0,0,.17.479.747.747,0,0,0,.41.239l1.89.391v.655H4.351Zm11.316.025,1.424-.34a.773.773,0,0,0,.41-.246.679.679,0,0,0,.158-.46V-12.5a.856.856,0,0,0-.183-.554,1.255,1.255,0,0,0-.573-.365l-1.222-.454v-.441l4.007-.832v2.785h.025q.353-.554.744-1.071a5.81,5.81,0,0,1,.863-.92,4.4,4.4,0,0,1,1.021-.655,2.877,2.877,0,0,1,1.216-.252,5.168,5.168,0,0,1,.6.032,3.718,3.718,0,0,1,.485.088,3.017,3.017,0,0,1,.416.139q.2.082.41.183v2.987h-.794l-.4-1.046a.5.5,0,0,0-.208-.227,1.46,1.46,0,0,0-.365-.164,3.458,3.458,0,0,0-.435-.1,2.611,2.611,0,0,0-.428-.038,2.963,2.963,0,0,0-.876.126,3.283,3.283,0,0,0-.781.359,3.833,3.833,0,0,0-.7.567,7.757,7.757,0,0,0-.643.75v7.473a.692.692,0,0,0,.151.466.756.756,0,0,0,.4.239l1.689.34v.63H15.667ZM33.738-4.3a4.483,4.483,0,0,1-.989,1.09,4.777,4.777,0,0,1-1.09.636,4.354,4.354,0,0,1-1.09.3,7.747,7.747,0,0,1-.989.069,3.294,3.294,0,0,1-1.361-.271,3.23,3.23,0,0,1-1.04-.731A3.3,3.3,0,0,1,26.5-4.273a3.427,3.427,0,0,1-.239-1.273,3.413,3.413,0,0,1,.277-1.411,3.607,3.607,0,0,1,.744-1.084,4.608,4.608,0,0,1,1.071-.794,7.393,7.393,0,0,1,1.248-.536,7.88,7.88,0,0,1,1.292-.3,8.464,8.464,0,0,1,1.216-.095q.113,0,.34.019l.473.038.479.038q.233.019.359.019l.013-2.193a3.851,3.851,0,0,0-.12-1.046,1.538,1.538,0,0,0-.359-.662,1.267,1.267,0,0,0-.6-.34,3.447,3.447,0,0,0-.857-.095,3.682,3.682,0,0,0-1.216.208,6.4,6.4,0,0,0-1.128.517,11.042,11.042,0,0,0-.983.643q-.454.334-.769.573h-.315l-.34-2.079q.4-.2.87-.4a9.6,9.6,0,0,1,1-.365,8.9,8.9,0,0,1,1.14-.265,7.819,7.819,0,0,1,1.285-.1,6.539,6.539,0,0,1,1.613.208,4.443,4.443,0,0,1,1.481.674,3.5,3.5,0,0,1,1.077,1.254,3.976,3.976,0,0,1,.4,1.922l-.063,6.679a.851.851,0,0,0,.069.347.723.723,0,0,0,.208.271.929.929,0,0,0,.334.17,1.659,1.659,0,0,0,.46.057,1.289,1.289,0,0,0,.214-.025q.139-.025.309-.063t.34-.088l.3-.088h.139v.68a5.66,5.66,0,0,1-.466.321,6.33,6.33,0,0,1-.63.347,5.265,5.265,0,0,1-.7.277,2.28,2.28,0,0,1-.687.113,3.2,3.2,0,0,1-.87-.107,1.534,1.534,0,0,1-.636-.347A1.4,1.4,0,0,1,33.9-3.3a3.546,3.546,0,0,1-.12-1Zm.025-4.625a13.181,13.181,0,0,0-2.13.158,5.448,5.448,0,0,0-1.626.5,2.685,2.685,0,0,0-1.033.9,2.373,2.373,0,0,0-.365,1.336,2.715,2.715,0,0,0,.2,1.115,2.093,2.093,0,0,0,.517.725,1.894,1.894,0,0,0,.712.4,2.638,2.638,0,0,0,.762.12,4.379,4.379,0,0,0,.781-.076,3.869,3.869,0,0,0,.807-.239,3.814,3.814,0,0,0,.744-.416,2.584,2.584,0,0,0,.6-.6Zm15.324,3.68v1a10.766,10.766,0,0,1-.895.744,7.02,7.02,0,0,1-1.1.674,7.484,7.484,0,0,1-1.292.491,5.318,5.318,0,0,1-1.449.2,5.055,5.055,0,0,1-2.268-.5,5.283,5.283,0,0,1-1.72-1.342,5.975,5.975,0,0,1-1.09-1.966,7.407,7.407,0,0,1-.378-2.382,7.9,7.9,0,0,1,.2-1.789,7,7,0,0,1,.6-1.638,6.519,6.519,0,0,1,.977-1.405,6.24,6.24,0,0,1,1.317-1.1,6.439,6.439,0,0,1,1.632-.718,6.924,6.924,0,0,1,1.928-.258,5.869,5.869,0,0,1,1.266.12,6.031,6.031,0,0,1,.914.271,4.624,4.624,0,0,1,.643.309q.265.158.479.258l-.34,2.092h-.34l-.907-.63a8.575,8.575,0,0,0-.939-.567,5.632,5.632,0,0,0-1.027-.41,4.231,4.231,0,0,0-1.185-.158,1.948,1.948,0,0,0-.485.063,2.7,2.7,0,0,0-.485.176,2.352,2.352,0,0,0-.435.265,2.816,2.816,0,0,0-.347.315,2.937,2.937,0,0,0-.4.573,5.11,5.11,0,0,0-.372.863,7.934,7.934,0,0,0-.284,1.14,8.033,8.033,0,0,0-.113,1.405,8.611,8.611,0,0,0,.277,2.281,4.857,4.857,0,0,0,.819,1.708A3.562,3.562,0,0,0,43.637-4.09a4.488,4.488,0,0,0,1.884.372,3.363,3.363,0,0,0,1.046-.164,5.96,5.96,0,0,0,.945-.4,6.426,6.426,0,0,0,.794-.491q.353-.258.592-.473Zm.933,2.155,1.386-.34a.83.83,0,0,0,.4-.252.672.672,0,0,0,.151-.454V-18.941a.818.818,0,0,0-.17-.536,1.334,1.334,0,0,0-.561-.359L49.995-20.3v-.428l4.159-.844V-8.683l5.129-5.079-1.563-.517V-14.9h4.94v.617l-1.386.378a1.45,1.45,0,0,0-.58.29q-.239.2-.4.353l-3.339,3.1,4.562,6.137a2.23,2.23,0,0,0,.378.365,1.7,1.7,0,0,0,.554.265l1.046.3v.63H58.009v-.63L59.32-3.5,55.464-8.658,54.141-8v3.869a.65.65,0,0,0,.158.46.9.9,0,0,0,.4.246l1.222.34v.63h-5.9ZM66.755-18.034a1.555,1.555,0,0,1-.611-.12,1.663,1.663,0,0,1-.5-.321,1.506,1.506,0,0,1-.34-.479,1.475,1.475,0,0,1-.126-.617,1.488,1.488,0,0,1,.126-.611,1.56,1.56,0,0,1,.34-.491,1.515,1.515,0,0,1,.5-.321,1.63,1.63,0,0,1,.611-.113,1.729,1.729,0,0,1,.624.113,1.611,1.611,0,0,1,.517.315,1.386,1.386,0,0,1,.34.479,1.51,1.51,0,0,1,.12.6,1.634,1.634,0,0,1-.12.63,1.359,1.359,0,0,1-.34.491,1.7,1.7,0,0,1-.517.321A1.649,1.649,0,0,1,66.755-18.034ZM63.743-3.088l1.512-.34a.77.77,0,0,0,.4-.246.679.679,0,0,0,.158-.46v-8.393a.824.824,0,0,0-.17-.529,1.222,1.222,0,0,0-.573-.353l-1.273-.454v-.428L68-15.136v11a.692.692,0,0,0,.151.466.756.756,0,0,0,.4.239l1.411.34v.63H63.743Zm7.233,0,1.411-.34a.873.873,0,0,0,.4-.252.656.656,0,0,0,.158-.454V-12.54a.805.805,0,0,0-.176-.529,1.352,1.352,0,0,0-.567-.365l-1.21-.441v-.441l4.045-.832v2.054h.025a6.4,6.4,0,0,1,.989-1.109,4.343,4.343,0,0,1,1-.662,3.874,3.874,0,0,1,1.014-.315,6.551,6.551,0,0,1,1.04-.082,4.761,4.761,0,0,1,1.563.252,3.313,3.313,0,0,1,1.266.781,3.679,3.679,0,0,1,.844,1.361,5.731,5.731,0,0,1,.309,1.991v6.692a.725.725,0,0,0,.17.5.83.83,0,0,0,.384.252l1.248.34v.63h-5.9v-.63l1.374-.34a.812.812,0,0,0,.391-.258.757.757,0,0,0,.151-.5v-5.847a10.7,10.7,0,0,0-.1-1.544,3.089,3.089,0,0,0-.4-1.172,1.975,1.975,0,0,0-.832-.75,3.221,3.221,0,0,0-1.418-.265,4.506,4.506,0,0,0-.807.076,4.42,4.42,0,0,0-.819.233,3.762,3.762,0,0,0-.769.41,2.926,2.926,0,0,0-.643.6v8.3a.674.674,0,0,0,.158.466.788.788,0,0,0,.4.239l1.21.34v.63h-5.91Zm17.63.391a3.024,3.024,0,0,1-.687-.258,2.861,2.861,0,0,1-.662-.466,2.535,2.535,0,0,1-.51-.68,1.969,1.969,0,0,1-.208-.926,1.943,1.943,0,0,1,.233-.977,2.369,2.369,0,0,1,.58-.687,3.121,3.121,0,0,1,.756-.447,5.451,5.451,0,0,1,.762-.258v-.025a4.7,4.7,0,0,1-.851-.586,3.9,3.9,0,0,1-.68-.775,3.574,3.574,0,0,1-.46-1.008,4.634,4.634,0,0,1-.164-1.285,3.7,3.7,0,0,1,.359-1.594A4.032,4.032,0,0,1,88.084-14a5.126,5.126,0,0,1,1.55-.914,5.486,5.486,0,0,1,1.985-.347,7.355,7.355,0,0,1,1.185.1,9.586,9.586,0,0,1,1.172.265H98.36l-.252,1.512-3.5-.744v.013a5.217,5.217,0,0,1,.662.712,4.082,4.082,0,0,1,.466.769,4.208,4.208,0,0,1,.277.8,3.524,3.524,0,0,1,.095.807,4.33,4.33,0,0,1-.315,1.67,3.7,3.7,0,0,1-.914,1.317,4.26,4.26,0,0,1-1.474.87,5.921,5.921,0,0,1-2.01.315q-.227,0-.479-.013t-.485-.038q-.233-.025-.447-.069a3.519,3.519,0,0,1-.4-.107,1.214,1.214,0,0,0-.435.113,1.49,1.49,0,0,0-.4.265,1.263,1.263,0,0,0-.284.391,1.108,1.108,0,0,0-.107.479,1.521,1.521,0,0,0,.088.529,1.1,1.1,0,0,0,.252.4,1.332,1.332,0,0,0,.378.265,1.025,1.025,0,0,0,.441.1h4.1a5.75,5.75,0,0,1,2,.3,3.74,3.74,0,0,1,1.3.775,2.727,2.727,0,0,1,.7,1.059,3.434,3.434,0,0,1,.208,1.153A3.747,3.747,0,0,1,97.3.68,4.854,4.854,0,0,1,95.9,2.192a7,7,0,0,1-2.079.983,8.988,8.988,0,0,1-2.564.353A10.422,10.422,0,0,1,89.1,3.32a6,6,0,0,1-1.7-.611,3.214,3.214,0,0,1-1.115-.989,2.379,2.379,0,0,1-.4-1.367,2.745,2.745,0,0,1,.227-1.159,2.828,2.828,0,0,1,.6-.857,3.394,3.394,0,0,1,.863-.6,5.9,5.9,0,0,1,1.027-.391ZM91.518-7.65a1.959,1.959,0,0,0,1.046-.271,2.14,2.14,0,0,0,.725-.75,3.735,3.735,0,0,0,.422-1.115,6.355,6.355,0,0,0,.139-1.355,4.976,4.976,0,0,0-.17-1.348,3.343,3.343,0,0,0-.479-1.04,2.2,2.2,0,0,0-.75-.674,2.026,2.026,0,0,0-.983-.239,2.136,2.136,0,0,0-1.065.252,2.2,2.2,0,0,0-.75.7,3.186,3.186,0,0,0-.447,1.052,5.618,5.618,0,0,0-.145,1.311,5.382,5.382,0,0,0,.17,1.392,3.543,3.543,0,0,0,.485,1.1,2.359,2.359,0,0,0,.775.725A2.022,2.022,0,0,0,91.518-7.65ZM89.451-2.635a1.667,1.667,0,0,0-.479.233,1.838,1.838,0,0,0-.46.46,2.494,2.494,0,0,0-.34.712,3.223,3.223,0,0,0-.132.964,2.361,2.361,0,0,0,.183.958,2.41,2.41,0,0,0,.485.725,2.691,2.691,0,0,0,.693.51,5.18,5.18,0,0,0,.807.334,4.942,4.942,0,0,0,.832.189,5.718,5.718,0,0,0,.769.057,6.7,6.7,0,0,0,1.5-.17,4.486,4.486,0,0,0,1.336-.529A2.928,2.928,0,0,0,95.6.881a2.435,2.435,0,0,0,.365-1.348,2.15,2.15,0,0,0-.145-.762,2.027,2.027,0,0,0-.441-.693,2.3,2.3,0,0,0-.769-.51,2.9,2.9,0,0,0-1.14-.2Z" transform="translate(-0.583 21.575)" fill="#fff"/>
</svg>
