<svg xmlns="http://www.w3.org/2000/svg" width="15.869" height="14.933" viewBox="0 0 15.869 14.933">
  <path id="Path_23" data-name="Path 23" d="M6.8,5.867A.933.933,0,0,0,6.8,4H4.933A.933.933,0,0,0,4,4.933V18a.933.933,0,0,0,.933.933H6.8a.933.933,0,0,0,0-1.867H5.867V5.867Zm12.9,5.059L17.066,7.192a.934.934,0,1,0-1.521,1.083l1.605,2.259H9.6a.933.933,0,1,0,0,1.867h7.466l-1.68,2.24a.933.933,0,0,0,1.493,1.12l2.8-3.733a.933.933,0,0,0,.019-1.1Z" transform="translate(-4 -4)" fill="#fff" opacity="0.76"/>
</svg>
