<svg id="g6963" xmlns="http://www.w3.org/2000/svg" width="11.232" height="13.11" viewBox="0 0 11.232 13.11">
  <path id="path7133" d="M7.617,1a5.6,5.6,0,0,0-4.06,9.469.469.469,0,0,0,.088.112l3.241,3.228a1.043,1.043,0,0,0,1.467,0l3.23-3.219.011-.009,0,0a.469.469,0,0,0,.048-.055l.011-.015A5.609,5.609,0,0,0,7.617,1Zm0,.936A4.672,4.672,0,0,1,10.93,9.913q-.016.017-.031.035l-3.2,3.2a.093.093,0,0,1-.144,0L4.391,10l0,0a.469.469,0,0,0-.079-.081A4.673,4.673,0,0,1,7.617,1.936ZM7.632,3.82a2.813,2.813,0,1,0,2.82,2.813A2.818,2.818,0,0,0,7.632,3.82Zm0,.933a1.88,1.88,0,1,1-1.873,1.88A1.874,1.874,0,0,1,7.632,4.753Z" transform="translate(-2.004 -1)" fill="#009792"/>
</svg>
