<svg xmlns="http://www.w3.org/2000/svg" width="22.602" height="20.091" viewBox="0 0 22.602 20.091">
  <path id="message" d="M21.835,7.511a1.273,1.273,0,0,1,1.256,1.256v8.79a1.273,1.273,0,0,1-1.256,1.256H10.749l-.215.215v-.215H6.767a1.273,1.273,0,0,1-1.256-1.256V8.767A1.273,1.273,0,0,1,6.767,7.511H21.835m0-2.511H6.767A3.778,3.778,0,0,0,3,8.767v8.79a3.778,3.778,0,0,0,3.767,3.767H8.023v3.767l3.767-3.767H21.835A3.778,3.778,0,0,0,25.6,17.557V8.767A3.778,3.778,0,0,0,21.835,5Z" transform="translate(-3 -5)" fill="#009792"/>
</svg>
