<svg xmlns="http://www.w3.org/2000/svg" width="14.066" height="12.415" viewBox="0 0 14.066 12.415">
  <g id="Missed_Call" data-name="Missed Call" transform="translate(-3.189 -3.18)" opacity="0.76">
    <path id="Path_9" data-name="Path 9" d="M12.219,15.595a2.536,2.536,0,0,1-1.794-.741l-6.5-6.5a2.54,2.54,0,0,1,0-3.587L5.1,3.6a1.42,1.42,0,0,1,2.012,0l1.5,1.5a1.42,1.42,0,0,1,0,2.012l-.532.532a.445.445,0,0,0,0,.631L10.515,10.7a.459.459,0,0,0,.631,0l.532-.532a1.42,1.42,0,0,1,2.012,0l1.5,1.5a1.42,1.42,0,0,1,0,2.012l-1.174,1.174a2.533,2.533,0,0,1-1.792.741ZM6.11,4.041a.562.562,0,0,0-.4.177L4.54,5.381a1.672,1.672,0,0,0,0,2.37l6.5,6.493a1.672,1.672,0,0,0,2.37,0l1.174-1.174a.556.556,0,0,0,0-.793l-1.5-1.5a.575.575,0,0,0-.793,0l-.526.534a1.308,1.308,0,0,1-1.85,0L7.469,8.878a1.308,1.308,0,0,1,0-1.85L8,6.5A.562.562,0,0,0,8,5.7l-1.5-1.484A.558.558,0,0,0,6.11,4.041Z" fill="#fff"/>
    <path id="Path_10" data-name="Path 10" d="M44.689,10.263H42.569a.349.349,0,0,1-.349-.349V6.869a.349.349,0,0,1,.7,0v2.7h1.772a.349.349,0,0,1,0,.7Z" transform="translate(-30.92 -2.197)" fill="#fff"/>
    <path id="Path_13" data-name="Path 13" d="M42.569,6.52h2.121a.349.349,0,0,1,.349.349V9.915a.349.349,0,1,1-.7,0v-2.7H42.569a.349.349,0,0,1,0-.7Z" transform="translate(-29.043 -2.229)" fill="#fff"/>
    <path id="Path_11" data-name="Path 11" d="M35.345,8.183a.348.348,0,0,1-.218-.62l1.263-.992a.349.349,0,1,1,.434.544l-1.253,1A.349.349,0,0,1,35.345,8.183Z" transform="translate(-24.955 -2.164)" fill="#fff"/>
    <path id="Path_14" data-name="Path 14" d="M36.624,6.481a.348.348,0,0,1,.218.62l-1.263.992a.349.349,0,1,1-.434-.544l1.253-1A.349.349,0,0,1,36.624,6.481Z" transform="translate(-19.719 -0.142)" fill="#fff"/>
    <path id="Path_12" data-name="Path 12" d="M43.627,8.066a.349.349,0,0,1-.218-.077l-1.248-1a.349.349,0,1,1,.43-.537l1.253,1a.349.349,0,0,1-.218.62Z" transform="translate(-30.726 -2.048)" fill="#fff"/>
    <path id="Path_15" data-name="Path 15" d="M42.333,6.346a.349.349,0,0,1,.218.077l1.248,1a.349.349,0,1,1-.43.537l-1.253-1a.349.349,0,0,1,.218-.62Z" transform="translate(-27.939 -0.007)" fill="#fff"/>
  </g>
</svg>
