<svg xmlns="http://www.w3.org/2000/svg" width="14.556" height="15.026" viewBox="0 0 14.556 15.026">
  <g id="patient" transform="translate(-7.998)" opacity="0.76">
    <path id="Path_20" data-name="Path 20" d="M22.077,6.661c.012-.064.008.067.008-1.755A4.912,4.912,0,0,0,17.179,0H14.484a4.889,4.889,0,0,0-2.892.943A3.285,3.285,0,0,0,8.468,4.226c0,2.554,0,2.371.008,2.435A1.762,1.762,0,0,0,9.759,9.626h.117a5.4,5.4,0,1,0,10.8,0h.117A1.762,1.762,0,0,0,22.077,6.661ZM9.407,4.226a2.347,2.347,0,0,1,2.348-2.348c.207,0,.282-.1.5-.252A3.951,3.951,0,0,1,14.484.939h2.695a3.971,3.971,0,0,1,3.967,3.967V6.1h-2.48a8.93,8.93,0,0,1-6.344-2.639.47.47,0,1,0-.666.662,9.881,9.881,0,0,0,1.083.943A3.292,3.292,0,0,1,10.346,6.1H9.407Zm10.33,5.122a9.495,9.495,0,0,1-1.2.538,2.981,2.981,0,0,1-2.177-.045,2.82,2.82,0,0,0-2.167,0,2.981,2.981,0,0,1-2.177.045,9.493,9.493,0,0,1-1.2-.538V7.017A4.236,4.236,0,0,0,13.525,5.6a9.849,9.849,0,0,0,5.141,1.442h1.071ZM9.759,8.687a.822.822,0,1,1,0-1.643h.117V8.687Zm5.408,5.4a4.469,4.469,0,0,1-4.278-3.65q.4.184.8.334a3.917,3.917,0,0,0,2.861-.059,1.881,1.881,0,0,1,1.446,0,3.917,3.917,0,0,0,2.861.059q.408-.149.8-.334A4.467,4.467,0,0,1,15.168,14.085Zm5.626-5.4h-.117V7.043h.117a.822.822,0,0,1,0,1.643Z" transform="translate(0)" fill="#fff"/>
    <path id="Path_21" data-name="Path 21" d="M160.47,256a.47.47,0,0,0-.47.47v.47a.47.47,0,0,0,.939,0v-.47A.47.47,0,0,0,160.47,256Z" transform="translate(-147.541 -248.487)" fill="#fff"/>
    <path id="Path_22" data-name="Path 22" d="M320.47,256a.47.47,0,0,0-.47.47v.47a.47.47,0,0,0,.939,0v-.47A.47.47,0,0,0,320.47,256Z" transform="translate(-302.845 -248.487)" fill="#fff"/>
  </g>
</svg>
