<svg xmlns="http://www.w3.org/2000/svg" width="14.271" height="14.274" viewBox="0 0 14.271 14.274">
  <g id="Outgoing_Call" data-name="Outgoing Call" transform="translate(-3.189 -3.18)">
    <path id="Path_25" data-name="Path 25" d="M13.57,17.454a2.9,2.9,0,0,1-2.063-.854L4.041,9.134a2.92,2.92,0,0,1,0-4.123h0l1.352-1.35a1.629,1.629,0,0,1,2.31,0L9.422,5.379a1.632,1.632,0,0,1,0,2.313L8.81,8.3a.513.513,0,0,0,0,.726l2.8,2.8a.527.527,0,0,0,.726,0l.612-.612a1.634,1.634,0,0,1,2.313,0l1.719,1.719a1.634,1.634,0,0,1,0,2.313L15.63,16.6a2.9,2.9,0,0,1-2.06.854ZM4.742,5.711a1.927,1.927,0,0,0,0,2.724L12.208,15.9a1.927,1.927,0,0,0,2.724,0l1.35-1.35a.644.644,0,0,0,0-.911l-1.719-1.721a.646.646,0,0,0-.911,0l-.6.614a1.5,1.5,0,0,1-2.127,0L8.11,9.73a1.506,1.506,0,0,1,0-2.127l.614-.612a.646.646,0,0,0,0-.911L7,4.374a.656.656,0,0,0-.911,0ZM16.472,7.687a.5.5,0,0,1-.367-.161L14.372,5.634a.5.5,0,1,1,.731-.669l1.733,1.892a.5.5,0,0,1-.364.83Z" transform="translate(0)" fill="#119a1a"/>
    <path id="Path_26" data-name="Path 26" d="M48.326,20.235a.5.5,0,0,1-.367-.83l1.733-1.894a.5.5,0,1,1,.731.669L48.69,20.074A.5.5,0,0,1,48.326,20.235Z" transform="translate(-33.587 -10.661)" fill="#119a1a"/>
    <path id="Path_27" data-name="Path 27" d="M41.03,18.371H36.325a.5.5,0,0,1,0-.991H41.03a.5.5,0,0,1,0,.991Z" transform="translate(-24.558 -10.683)" fill="#119a1a"/>
  </g>
</svg>
