<svg xmlns="http://www.w3.org/2000/svg" width="13.826" height="13.826" viewBox="0 0 13.826 13.826">
  <g id="Missed_Call" data-name="Missed Call" transform="translate(-3.189 -3.18)">
    <path id="Path_28" data-name="Path 28" d="M13.246,17.006a2.824,2.824,0,0,1-2-.825L4.014,8.947a2.829,2.829,0,0,1,0-3.994L5.322,3.645a1.581,1.581,0,0,1,2.241,0L9.227,5.31a1.581,1.581,0,0,1,0,2.241l-.593.593a.5.5,0,0,0,0,.7l2.713,2.713a.511.511,0,0,0,.7,0l.593-.593a1.581,1.581,0,0,1,2.241,0l1.665,1.665a1.581,1.581,0,0,1,0,2.241L15.242,16.18a2.821,2.821,0,0,1-2,.825ZM6.442,4.139a.626.626,0,0,0-.441.2l-1.307,1.3a1.862,1.862,0,0,0,0,2.639L11.926,15.5a1.862,1.862,0,0,0,2.639,0l1.307-1.307a.619.619,0,0,0,0-.883l-1.665-1.667a.641.641,0,0,0-.883,0l-.585.595a1.456,1.456,0,0,1-2.061,0L7.956,9.525a1.456,1.456,0,0,1,0-2.061l.595-.593a.626.626,0,0,0,0-.883L6.883,4.336A.621.621,0,0,0,6.442,4.139Z" transform="translate(0)" fill="#ff2300"/>
    <path id="Path_29" data-name="Path 29" d="M45.619,11.673H42.7a.48.48,0,0,1-.48-.48V7a.48.48,0,0,1,.96,0v3.714h2.44a.48.48,0,1,1,0,.96Z" transform="translate(-29.667 -2.539)" fill="#ff2300"/>
    <path id="Path_30" data-name="Path 30" d="M35.476,8.824a.479.479,0,0,1-.3-.854L36.916,6.6a.48.48,0,1,1,.6.749L35.788,8.728A.48.48,0,0,1,35.476,8.824Z" transform="translate(-24.176 -2.509)" fill="#ff2300"/>
    <path id="Path_31" data-name="Path 31" d="M44.246,8.717a.48.48,0,0,1-.3-.106L42.228,7.236a.48.48,0,1,1,.593-.739l1.725,1.375a.48.48,0,0,1-.3.854Z" transform="translate(-29.488 -2.401)" fill="#ff2300"/>
  </g>
</svg>
