<svg xmlns="http://www.w3.org/2000/svg" width="20.102" height="20.102" viewBox="0 0 20.102 20.102">
  <g id="Missed_Call" data-name="Missed Call" transform="translate(-3.189 -3.18)">
    <path id="Path_24" data-name="Path 24" d="M17.811,23.282a4.105,4.105,0,0,1-2.906-1.2L4.389,11.565a4.112,4.112,0,0,1,0-5.808l1.9-1.9a2.3,2.3,0,0,1,3.258,0l2.421,2.421a2.3,2.3,0,0,1,0,3.258l-.862.862a.72.72,0,0,0,0,1.022l3.945,3.945a.743.743,0,0,0,1.022,0l.862-.862a2.3,2.3,0,0,1,3.258,0l2.421,2.421a2.3,2.3,0,0,1,0,3.258l-1.9,1.9a4.1,4.1,0,0,1-2.9,1.2ZM7.919,4.575a.91.91,0,0,0-.642.286l-1.9,1.884a2.707,2.707,0,0,0,0,3.837L15.893,21.095a2.707,2.707,0,0,0,3.837,0l1.9-1.9a.9.9,0,0,0,0-1.284L19.21,15.486a.931.931,0,0,0-1.284,0l-.851.865a2.117,2.117,0,0,1-3,0L10.12,12.406a2.117,2.117,0,0,1,0-3l.865-.862a.91.91,0,0,0,0-1.284l-2.424-2.4A.9.9,0,0,0,7.919,4.575Z" fill="#009792"/>
  </g>
</svg>
