<svg xmlns="http://www.w3.org/2000/svg" width="13.195" height="15.026" viewBox="0 0 13.195 15.026">
  <g id="pressure" transform="translate(-31.198)" opacity="0.76">
    <path id="Path_16" data-name="Path 16" d="M38.964,1.935a1.321,1.321,0,1,0-2.337,0,6.6,6.6,0,1,0,2.337,0ZM37.8.88a.44.44,0,1,1-.44.44A.441.441,0,0,1,37.8.88Zm0,13.265a5.717,5.717,0,1,1,5.717-5.717A5.723,5.723,0,0,1,37.8,14.145Z" fill="#fff"/>
    <path id="Path_17" data-name="Path 17" d="M99.093,123.439l-.019-.021-.022-.02a4.838,4.838,0,0,0-6.814.009l-.012.01-.009.01a4.833,4.833,0,0,0-1.415,3.42.44.44,0,0,0,.44.44h.5a.44.44,0,0,0,0-.88h-.034a3.949,3.949,0,0,1,.848-2.039l.024.024a.44.44,0,0,0,.623-.623l-.024-.024a3.949,3.949,0,0,1,2.032-.842v.034a.44.44,0,0,0,.88,0v-.034a3.949,3.949,0,0,1,2.032.843l-.023.023a.44.44,0,1,0,.623.623l.024-.024a3.949,3.949,0,0,1,.847,2.033h-.039a.44.44,0,1,0,0,.88h.505a.44.44,0,0,0,.44-.441A4.833,4.833,0,0,0,99.093,123.439Z" transform="translate(-57.855 -118.42)" fill="#fff"/>
    <path id="Path_18" data-name="Path 18" d="M207.227,214.911a.44.44,0,0,0-.623,0l-1.838,1.838a1.318,1.318,0,0,0-.661-.126.44.44,0,1,0,.061.878.44.44,0,0,1,.47.465.44.44,0,0,0,.414.465h.026a.44.44,0,0,0,.439-.415,1.321,1.321,0,0,0-.127-.645l1.838-1.838a.44.44,0,0,0,0-.623Z" transform="translate(-167.436 -208.479)" fill="#fff"/>
    <path id="Path_19" data-name="Path 19" d="M160.488,395H155.44a.44.44,0,1,0,0,.88h5.048a.44.44,0,1,0,0-.88Z" transform="translate(-120.169 -383.408)" fill="#fff"/>
  </g>
</svg>
