<svg xmlns="http://www.w3.org/2000/svg" width="12.294" height="14" viewBox="0 0 12.294 14">
  <g id="pressure_1_" data-name="pressure (1)" transform="translate(-31.198)">
    <path id="Path_40" data-name="Path 40" d="M38.434,1.8a1.23,1.23,0,1,0-2.178,0,6.147,6.147,0,1,0,2.178,0ZM37.345.82a.41.41,0,1,1-.41.41A.411.411,0,0,1,37.345.82Zm0,12.359a5.327,5.327,0,1,1,5.327-5.327A5.333,5.333,0,0,1,37.345,13.18Z" fill="#009792"/>
    <path id="Path_41" data-name="Path 41" d="M98.527,123.341l-.018-.019-.02-.019a4.508,4.508,0,0,0-6.349.009l-.011.01-.008.009a4.5,4.5,0,0,0-1.319,3.187.41.41,0,0,0,.41.41h.465a.41.41,0,0,0,0-.82h-.032a3.68,3.68,0,0,1,.79-1.9l.023.023a.41.41,0,0,0,.58-.58l-.022-.022a3.679,3.679,0,0,1,1.893-.785v.032a.41.41,0,0,0,.82,0v-.032a3.679,3.679,0,0,1,1.893.785l-.022.022a.41.41,0,1,0,.58.58l.022-.022a3.679,3.679,0,0,1,.789,1.894h-.037a.41.41,0,0,0,0,.82h.471a.41.41,0,0,0,.41-.411A4.5,4.5,0,0,0,98.527,123.341Z" transform="translate(-57.974 -118.664)" fill="#009792"/>
    <path id="Path_42" data-name="Path 42" d="M206.986,214.9a.41.41,0,0,0-.58,0l-1.713,1.713a1.228,1.228,0,0,0-.616-.117.41.41,0,1,0,.057.818.41.41,0,0,1,.438.433.41.41,0,0,0,.386.433h.024a.41.41,0,0,0,.409-.386,1.23,1.23,0,0,0-.118-.6l1.713-1.713A.41.41,0,0,0,206.986,214.9Z" transform="translate(-167.781 -208.91)" fill="#009792"/>
    <path id="Path_43" data-name="Path 43" d="M160.113,395h-4.7a.41.41,0,0,0,0,.82h4.7a.41.41,0,0,0,0-.82Z" transform="translate(-120.417 -384.199)" fill="#009792"/>
  </g>
</svg>
