<svg xmlns="http://www.w3.org/2000/svg" width="13.773" height="11.805" viewBox="0 0 13.773 11.805">
  <g id="map_4_" data-name="map (4)" transform="translate(-1 -2.001)" opacity="0.76">
    <path id="Path_7" data-name="Path 7" d="M5.427,13.805a.5.5,0,0,1-.22-.052l-3.391-1.7A1.465,1.465,0,0,1,1,10.738V4.084A1.475,1.475,0,0,1,3.136,2.764L5.647,4.02a.492.492,0,0,1,.272.44v8.854A.492.492,0,0,1,5.427,13.805ZM2.477,3.591a.5.5,0,0,0-.26.075.484.484,0,0,0-.233.418v6.654a.487.487,0,0,0,.272.44l2.68,1.34V4.763L2.7,3.644a.486.486,0,0,0-.219-.053ZM13.3,13.2a1.474,1.474,0,0,1-.661-.157l-2.512-1.255a.492.492,0,0,1-.272-.44V2.492a.492.492,0,0,1,.711-.44l3.391,1.7a1.464,1.464,0,0,1,.817,1.319v6.654A1.477,1.477,0,0,1,13.3,13.2Zm-2.46-2.156,2.239,1.12a.493.493,0,0,0,.712-.44V5.067a.487.487,0,0,0-.272-.44l-2.68-1.34Z" transform="translate(0)" fill="#fff"/>
    <path id="Path_8" data-name="Path 8" d="M5.492,13.805A.491.491,0,0,1,5,13.313V4.459A.491.491,0,0,1,5.309,4l4.919-1.968a.495.495,0,0,1,.675.456v8.854a.491.491,0,0,1-.309.456L5.675,13.77a.492.492,0,0,1-.183.035Zm.492-9.013v7.794l3.935-1.574V3.218Z" transform="translate(-0.065 0)" fill="#fff"/>
  </g>
</svg>
