<svg id="search_9_" data-name="search (9)" xmlns="http://www.w3.org/2000/svg" width="16.624" height="16.624" viewBox="0 0 16.624 16.624">
  <path id="Path_33" data-name="Path 33" d="M7.619,15.239a7.619,7.619,0,1,1,7.619-7.619A7.628,7.628,0,0,1,7.619,15.239Zm0-13.854a6.234,6.234,0,1,0,6.234,6.234A6.241,6.241,0,0,0,7.619,1.385Z" fill="#009792"/>
  <path id="Path_34" data-name="Path 34" d="M21.219,21.912a.691.691,0,0,1-.49-.2l-3.321-3.321a.693.693,0,0,1,.98-.979l3.321,3.321a.693.693,0,0,1-.49,1.182Z" transform="translate(-5.288 -5.287)" fill="#009792"/>
</svg>
