<svg xmlns="http://www.w3.org/2000/svg" width="7.655" height="14" viewBox="0 0 7.655 14">
  <path id="temperature" d="M9.818,9.909a1.273,1.273,0,1,0,1.273,1.273A1.273,1.273,0,0,0,9.818,9.909Zm2.864-1.273V3.864a2.864,2.864,0,1,0-5.727,0V8.636A3.818,3.818,0,0,0,9,14.892,4.455,4.455,0,0,0,9.818,15a3.818,3.818,0,0,0,2.864-6.364Zm-1.273,4.5A2.551,2.551,0,1,1,8.023,9.317a.636.636,0,0,0,.191-.452v-5a1.591,1.591,0,1,1,3.182,0V8.916a.636.636,0,0,0,.191.452,2.545,2.545,0,0,1-.178,3.818Z" transform="translate(-5.999 -1)" fill="#009792"/>
</svg>
