<svg xmlns="http://www.w3.org/2000/svg" width="19.791" height="15.026" viewBox="0 0 19.791 15.026">
  <path id="users" d="M11.179,11.207a4.315,4.315,0,0,0,1.531-3.288A4.462,4.462,0,0,0,8.207,3.5,4.462,4.462,0,0,0,3.7,7.919a4.315,4.315,0,0,0,1.531,3.288A7.065,7.065,0,0,0,1,17.642a.9.9,0,0,0,1.8,0,5.355,5.355,0,0,1,5.4-5.3,5.355,5.355,0,0,1,5.4,5.3.9.9,0,0,0,1.8,0,7.065,7.065,0,0,0-4.234-6.435Zm-2.973-.636a2.652,2.652,0,1,1,2.7-2.652A2.677,2.677,0,0,1,8.207,10.571Zm8.774.283a4.355,4.355,0,0,0,.74-4.746A4.509,4.509,0,0,0,13.612,3.5a.884.884,0,1,0,0,1.768,2.677,2.677,0,0,1,2.7,2.652,2.643,2.643,0,0,1-1.351,2.289.874.874,0,0,0-.045,1.5l.351.23.117.062a6.178,6.178,0,0,1,3.6,5.639.9.9,0,0,0,1.8,0A7.921,7.921,0,0,0,16.981,10.854Z" transform="translate(-1 -3.5)" fill="#fff" opacity="0.76"/>
</svg>
