<svg xmlns="http://www.w3.org/2000/svg" width="691.64" height="515.355" viewBox="0 0 691.64 515.355">
  <g id="Online_Doctor-rafiki" data-name="Online Doctor-rafiki" transform="translate(0 -55)">
    <g id="freepik--background-complete--inject-33" transform="translate(0 55)">
      <rect id="Rectangle_3" data-name="Rectangle 3" width="691.64" height="0.346" transform="translate(0 452.886)" fill="#ebebeb"/>
      <rect id="Rectangle_4" data-name="Rectangle 4" width="45.814" height="0.346" transform="translate(576.523 475.143)" fill="#ebebeb"/>
      <rect id="Rectangle_5" data-name="Rectangle 5" width="12.021" height="0.346" transform="translate(446.149 478.905)" fill="#ebebeb"/>
      <rect id="Rectangle_6" data-name="Rectangle 6" width="65.941" height="0.346" transform="translate(509.199 462.306)" fill="#ebebeb"/>
      <rect id="Rectangle_7" data-name="Rectangle 7" width="32.756" height="0.346" transform="translate(72.567 464.63)" fill="#ebebeb"/>
      <rect id="Rectangle_8" data-name="Rectangle 8" width="35.758" height="0.346" transform="translate(117.634 464.63)" fill="#ebebeb"/>
      <rect id="Rectangle_9" data-name="Rectangle 9" width="89.415" height="0.346" transform="translate(181.86 470.467)" fill="#ebebeb"/>
      <path id="Path_2" data-name="Path 2" d="M313.192,446.192H46.095a7.9,7.9,0,0,1-7.885-7.9V62.829A7.9,7.9,0,0,1,46.095,55h267.1a7.9,7.9,0,0,1,7.9,7.9V438.293A7.9,7.9,0,0,1,313.192,446.192ZM46.095,55.277a7.553,7.553,0,0,0-7.539,7.553V438.293a7.553,7.553,0,0,0,7.539,7.553h267.1a7.567,7.567,0,0,0,7.553-7.553V62.829a7.567,7.567,0,0,0-7.553-7.553Z" transform="translate(14.645 -55)" fill="#ebebeb"/>
      <path id="Path_3" data-name="Path 3" d="M529.51,446.192H262.4a7.912,7.912,0,0,1-7.9-7.9V62.829A7.912,7.912,0,0,1,262.4,55H529.51a7.9,7.9,0,0,1,7.871,7.829V438.293A7.9,7.9,0,0,1,529.51,446.192ZM262.4,55.277a7.567,7.567,0,0,0-7.553,7.553V438.293a7.567,7.567,0,0,0,7.553,7.553H529.51a7.567,7.567,0,0,0,7.553-7.553V62.829a7.567,7.567,0,0,0-7.553-7.553Z" transform="translate(97.545 -55)" fill="#ebebeb"/>
      <rect id="Rectangle_10" data-name="Rectangle 10" width="218.517" height="416.921" transform="translate(392.077 35.965)" fill="#ebebeb"/>
      <rect id="Rectangle_11" data-name="Rectangle 11" width="186.01" height="403.323" transform="translate(408.33 49.563)" fill="#f5f5f5"/>
      <rect id="Rectangle_12" data-name="Rectangle 12" width="52.302" height="14.455" transform="translate(475.198 83.011)" fill="#fff"/>
      <path id="Path_4" data-name="Path 4" d="M399.6,218.82h28.371a4.427,4.427,0,0,1,4.426,4.426h0a4.427,4.427,0,0,1-4.427,4.426H399.6a4.427,4.427,0,0,1-4.427-4.427h0a4.426,4.426,0,0,1,4.426-4.426Z" transform="translate(151.461 7.789)" fill="#fff"/>
      <rect id="Rectangle_13" data-name="Rectangle 13" width="145.327" height="117.122" transform="translate(97.355 80.327)" fill="#ebebeb"/>
      <rect id="Rectangle_14" data-name="Rectangle 14" width="101.519" height="129.724" transform="translate(234.867 88.129) rotate(90)" fill="#fafafa"/>
      <rect id="Rectangle_15" data-name="Rectangle 15" width="4.855" height="99.472" transform="translate(219.748 135.368) rotate(90)" fill="#e0e0e0"/>
      <rect id="Rectangle_16" data-name="Rectangle 16" width="4.855" height="99.472" transform="translate(219.748 146.42) rotate(90)" fill="#e0e0e0"/>
      <rect id="Rectangle_17" data-name="Rectangle 17" width="4.855" height="99.472" transform="translate(219.748 157.459) rotate(90)" fill="#e0e0e0"/>
      <rect id="Rectangle_18" data-name="Rectangle 18" width="4.855" height="49.591" transform="translate(194.807 168.511) rotate(90)" fill="#e0e0e0"/>
      <path id="Path_5" data-name="Path 5" d="M93.378,120.872a15.119,15.119,0,0,1-15.216,15.119,14.967,14.967,0,0,1-7.8-2.172V113.07H91.109A15.119,15.119,0,0,1,93.378,120.872Z" transform="translate(26.968 -32.743)" fill="#ebebeb"/>
      <path id="Path_6" data-name="Path 6" d="M181.789,113.07v20.749A15.119,15.119,0,0,1,161.04,113.07Z" transform="translate(60.894 -32.743)" fill="#ebebeb"/>
      <path id="Path_7" data-name="Path 7" d="M93.347,196.3a15.036,15.036,0,0,1-2.158,7.788H70.44V183.336A15.133,15.133,0,0,1,93.347,196.3Z" transform="translate(26.998 -6.635)" fill="#ebebeb"/>
      <path id="Path_8" data-name="Path 8" d="M181.791,183.331V204.08H161.042a14.912,14.912,0,0,1-2.172-7.788A15.147,15.147,0,0,1,181.8,183.317Z" transform="translate(60.892 -6.645)" fill="#ebebeb"/>
      <circle id="Ellipse_2" data-name="Ellipse 2" cx="12.878" cy="12.878" r="12.878" transform="translate(155.242 123.513) rotate(-80.78)" fill="#e0e0e0"/>
      <rect id="Rectangle_19" data-name="Rectangle 19" width="287.556" height="10.347" transform="translate(72.567 286.547)" fill="#ebebeb"/>
      <rect id="Rectangle_20" data-name="Rectangle 20" width="93.427" height="155.992" transform="translate(264.206 296.893)" fill="#f5f5f5"/>
      <rect id="Rectangle_21" data-name="Rectangle 21" width="93.427" height="155.992" transform="translate(76.122 296.893)" fill="#f5f5f5"/>
      <rect id="Rectangle_22" data-name="Rectangle 22" width="3.195" height="155.992" transform="translate(76.122 296.893)" fill="#ebebeb"/>
      <rect id="Rectangle_23" data-name="Rectangle 23" width="3.195" height="155.992" transform="translate(264.206 296.893)" fill="#ebebeb"/>
      <path id="Path_9" data-name="Path 9" d="M95.26,244.12H78.08l1.383,24.941H93.877Z" transform="translate(29.927 17.486)" fill="#f0f0f0"/>
      <rect id="Rectangle_24" data-name="Rectangle 24" width="89.761" height="10.817" transform="translate(184.585 275.729)" fill="#f0f0f0"/>
      <rect id="Rectangle_25" data-name="Rectangle 25" width="41.388" height="8.286" transform="translate(232.972 277.002)" fill="#fafafa"/>
    </g>
    <g id="freepik--Shadow--inject-33" transform="translate(77.616 539.037)">
      <ellipse id="freepik--path--inject-33" cx="268.204" cy="15.659" rx="268.204" ry="15.659" fill="#f5f5f5"/>
    </g>
    <g id="freepik--cross-icon--inject-33" transform="translate(426.922 369.655)">
      <circle id="Ellipse_3" data-name="Ellipse 3" cx="43.822" cy="43.822" r="43.822" transform="translate(0.553 0.539)" fill="#fff"/>
      <path id="Path_10" data-name="Path 10" d="M353.006,371.194a44.362,44.362,0,1,1,44.348-44.357,44.362,44.362,0,0,1-44.348,44.357Zm0-87.631a43.283,43.283,0,1,0,43.283,43.278,43.283,43.283,0,0,0-43.283-43.278Z" transform="translate(-308.63 -282.47)" fill="#008f87"/>
      <rect id="Rectangle_26" data-name="Rectangle 26" width="14.109" height="49.687" transform="translate(37.321 19.518)" fill="#008f87"/>
      <rect id="Rectangle_27" data-name="Rectangle 27" width="14.109" height="49.687" transform="translate(69.219 37.321) rotate(90)" fill="#008f87"/>
    </g>
    <g id="freepik--pulse-icon--inject-33" transform="translate(162.923 70.548)">
      <path id="Path_11" data-name="Path 11" d="M126.371,78.454l-.941-1.01a42.536,42.536,0,0,1,23.253-11.2l.194,1.383a41.139,41.139,0,0,0-22.506,10.831Z" transform="translate(-114.848 -66.24)" fill="#008f87"/>
      <path id="Path_12" data-name="Path 12" d="M119.066,88.875l-1.286-.5a42.562,42.562,0,0,1,5.533-9.877l1.107.83A41.832,41.832,0,0,0,119.066,88.875Z" transform="translate(-117.78 -61.541)" fill="#008f87"/>
      <circle id="Ellipse_4" data-name="Ellipse 4" cx="37.957" cy="37.957" r="37.957" transform="translate(1.923 4.413)" fill="#008f87"/>
      <path id="Path_13" data-name="Path 13" d="M176.73,85.855a15.852,15.852,0,0,0-22.63-.208,15.839,15.839,0,0,0-22.617.208,16.2,16.2,0,0,0,.567,22.575l17.983,17.983a5.81,5.81,0,0,0,8.217,0l17.983-17.983A16.2,16.2,0,0,0,176.73,85.855Z" transform="translate(-114.178 -60.583)" fill="#fff"/>
      <path id="Path_14" data-name="Path 14" d="M154.567,117.174h0a1.383,1.383,0,0,1-1.259-.927L145.3,92.829l-3.348,9.794a1.383,1.383,0,0,1-1.314.927h-13.4a1.383,1.383,0,0,1,0-2.767h12.45L144.026,88.1a1.383,1.383,0,0,1,2.614,0l8.148,23.834L162.7,93.3a1.379,1.379,0,0,1,2.476-.138l4.178,7.608h12.6a1.383,1.383,0,1,1,0,2.767h-13.4a1.383,1.383,0,0,1-1.217-.705l-3.278-5.865-8.217,19.366A1.383,1.383,0,0,1,154.567,117.174Z" transform="translate(-114.687 -58.219)" fill="#008f87"/>
    </g>
    <g id="freepik--Character--inject-33" transform="translate(192.965 85.852)">
      <path id="Path_15" data-name="Path 15" d="M343.614,487.158H199.241a16.959,16.959,0,0,1-17.1-18.259l23.336-345.82a19.975,19.975,0,0,1,19.573-18.328h144.4a16.959,16.959,0,0,1,17.1,18.328L363.174,468.9A19.961,19.961,0,0,1,343.614,487.158Z" transform="translate(-123.172 -66.784)" fill="#263238"/>
      <path id="Path_16" data-name="Path 16" d="M324.335,227.713H320.7a4.731,4.731,0,0,1-4.772-5.118l4.468-66.107a5.533,5.533,0,0,1,5.464-5.118h3.638a4.731,4.731,0,0,1,4.772,5.118L329.8,222.6A5.533,5.533,0,0,1,324.335,227.713Z" transform="translate(-71.883 -48.916)" fill="#263238"/>
      <path id="Path_17" data-name="Path 17" d="M199.572,183.6h-3.624a3.873,3.873,0,0,1-3.915-4.15l1.618-23.875a4.565,4.565,0,0,1,4.468-4.15h3.638a3.887,3.887,0,0,1,3.9,4.15l-1.618,23.875a4.551,4.551,0,0,1-4.468,4.15Z" transform="translate(-119.366 -48.896)" fill="#008f87"/>
      <path id="Path_18" data-name="Path 18" d="M197.492,214.415h-3.638a3.873,3.873,0,0,1-3.9-4.15l1.618-23.875a4.565,4.565,0,0,1,4.468-4.15H199.7a3.887,3.887,0,0,1,3.9,4.15l-1.618,23.875a4.551,4.551,0,0,1-4.5,4.15Z" transform="translate(-120.163 -37.084)" fill="#008f87"/>
      <path id="Path_19" data-name="Path 19" d="M341.4,487.143H197.031a16.959,16.959,0,0,1-17.1-18.259l23.35-345.82a19.975,19.975,0,0,1,19.643-18.273H367.244a16.959,16.959,0,0,1,17.1,18.273l-23.364,345.82A19.961,19.961,0,0,1,341.4,487.143Z" transform="translate(-124.019 -66.769)" fill="#008f87"/>
      <path id="Path_20" data-name="Path 20" d="M181.02,458.705l22.8-337.465H382.343l-22.8,337.465Z" transform="translate(-123.583 -60.464)" fill="#fff" opacity="0.3"/>
      <path id="Path_21" data-name="Path 21" d="M231.97,458.705,295.684,121.24h39.991L271.961,458.705Z" transform="translate(-104.055 -60.464)" fill="#fff" opacity="0.1"/>
      <path id="Path_22" data-name="Path 22" d="M210.13,458.705,273.844,121.24h20.265L230.4,458.705Z" transform="translate(-112.426 -60.464)" fill="#fff" opacity="0.1"/>
      <path id="Path_23" data-name="Path 23" d="M250.809,110.92h34.817a2.075,2.075,0,0,1,2.1,2.255h0a2.462,2.462,0,0,1-2.407,2.269H250.5a2.089,2.089,0,0,1-2.1-2.269h0a2.448,2.448,0,0,1,2.407-2.255Z" transform="translate(-97.76 -64.419)" fill="#fff"/>
      <path id="Path_24" data-name="Path 24" d="M249.5,413.054l-12.2,1.162-4.4-28.15,12.2-1.176Z" transform="translate(-103.699 40.588)" fill="#ffb573"/>
      <path id="Path_25" data-name="Path 25" d="M240.393,402.894l12.781-3.97a.9.9,0,0,1,1.134.526l4.15,10.139a2.1,2.1,0,0,1-1.383,2.767c-4.62,1.383-9.019,1.7-14.594,4.15-6.515,2.767-9.24,6.474-16.254,6.474-5.021,0-6.156-4.606-4.025-5.243,9.683-2.933,8.41-5.339,15.437-12.906A6.473,6.473,0,0,1,240.393,402.894Z" transform="translate(-108.19 45.948)" fill="#263238"/>
      <path id="Path_26" data-name="Path 26" d="M232.9,386.066l2.269,14.524,12.214-1.176-2.269-14.524Z" transform="translate(-103.699 40.588)" opacity="0.2"/>
      <path id="Path_27" data-name="Path 27" d="M255.831,128.845c-16-1.881-31.926-.622-47.9,2.476a12.768,12.768,0,0,0-10.25,11.066c-1.729,15.3-3.707,49.591,4.011,100.744l65.4-5.533c.125-9.282-6.474-51.569-1.024-95.446a11.716,11.716,0,0,0-10.236-13.307Z" transform="translate(-117.804 -57.888)" fill="#fff"/>
      <path id="Path_28" data-name="Path 28" d="M211.75,138.617l2.338,4.675a1.383,1.383,0,0,0,1.231.8l2.531.138a1.964,1.964,0,0,0,1.259-.387l4.357-3.251-5.381-3.915Z" transform="translate(-111.805 -54.546)" fill="#263238"/>
      <path id="Path_29" data-name="Path 29" d="M218.3,141.279a4.26,4.26,0,0,0-2.946-.235c-2.061,7.262-4.316,28.108-4.551,37.349,6.252,18.218,8.3,20.058,8.3,20.058l3.168-21.925S218.712,154.1,218.3,141.279Z" transform="translate(-112.169 -52.934)" fill="#263238"/>
      <path id="Path_30" data-name="Path 30" d="M236.535,105.8c-1.494,9.019-2.767,25.494,3.707,31.317-4.745,4.98-10.956,10.748-21.607,11.4s-9.005-6.723-6.308-10.665c9.946-2.656,9.462-10.07,7.511-17Z" transform="translate(-112.355 -66.382)" fill="#ffb573"/>
      <path id="Path_31" data-name="Path 31" d="M240.648,128.089a13.279,13.279,0,0,0-2.338-.761.927.927,0,0,0-1.037.429c-1.024,1.743-4.15,9.531-20.943,12.519,2.767,1.632,6.432,6.7,8.009,9.13,5.035-2.614,18.135-10.43,16.89-20.542A1.024,1.024,0,0,0,240.648,128.089Z" transform="translate(-110.05 -58.142)" fill="#f5f5f5"/>
      <path id="Path_32" data-name="Path 32" d="M213.976,129.6a.968.968,0,0,0-1.134-1.162,13,13,0,0,0-1.715.456,1.384,1.384,0,0,0-.36.208c-1.286,1.19-8.3,11.315-1.729,19.5,1.383-2.227,6.156-7.276,11.149-8.756C215.456,137.717,213.132,133.747,213.976,129.6Z" transform="translate(-113.906 -57.713)" fill="#f5f5f5"/>
      <path id="Path_33" data-name="Path 33" d="M227.087,110.24l-9.877,8.908a28.519,28.519,0,0,1,1,4.924c3.818-.65,8.95-4.98,9.226-8.991a13.113,13.113,0,0,0-.346-4.841Z" transform="translate(-109.712 -64.68)" opacity="0.2"/>
      <path id="Path_34" data-name="Path 34" d="M217.18,86.324c-8.521,3.334-9.074,10.333-8.3,17.983s9.1,2.587,10.956-2.2S228.979,81.7,217.18,86.324Z" transform="translate(-113.002 -74.17)" fill="#263238"/>
      <path id="Path_35" data-name="Path 35" d="M244.413,102.588c-2.365,12.048-3.154,19.2-10.043,24.747-10.388,8.3-24.456,1.134-25.7-11.288C207.549,104.857,211.6,87,224.01,83.513a16.212,16.212,0,0,1,20.4,19.075Z" transform="translate(-113.054 -75.177)" fill="#ffb573"/>
      <path id="Path_36" data-name="Path 36" d="M244.706,114.689c-10.139.539-8-5.215-6.156-8.521s-1.909-8.77.54-11.606c-4.371,1.743-8.978.3-14.829-3.763-4.537-3.168-10.222,9.489-15.756,3.14-5.229-5.99-.373-15.022,12.187-16.475s14.843,7.428,23.087,6.64,5.381,6,3.763,7.387C254.458,91.948,258.234,98.56,244.706,114.689Z" transform="translate(-113.845 -77.304)" fill="#263238"/>
      <path id="Path_37" data-name="Path 37" d="M235,90.619a10.153,10.153,0,0,0,5.27-8.839C243.009,86.58,242.719,92.03,235,90.619Z" transform="translate(-102.894 -75.588)" fill="#263238"/>
      <path id="Path_38" data-name="Path 38" d="M216.413,106.967a8.3,8.3,0,0,0,6.335-1.494.277.277,0,0,0,0-.4.291.291,0,0,0-.4,0,7.982,7.982,0,0,1-7.041,1.093.318.318,0,0,0-.373.194.29.29,0,0,0,.194.36,7.318,7.318,0,0,0,1.286.249Z" transform="translate(-110.59 -66.691)" fill="#263238"/>
      <path id="Path_39" data-name="Path 39" d="M239.59,109.377a11.786,11.786,0,0,1-7.733,4.454c-4.025.526-5.367-3.223-3.68-6.723,1.535-3.154,5.533-7.221,9.24-6.128S241.913,106.334,239.59,109.377Z" transform="translate(-105.782 -68.298)" fill="#ffb573"/>
      <path id="Path_40" data-name="Path 40" d="M246.053,330.214c.484-36.117,5.1-122.144,5.1-122.144l-50.988,4.3s10.139,88.654,16.254,125.505c6.363,38.3,25.881,128.036,25.881,128.036l20.749-1.771S255.474,358.142,246.053,330.214Z" transform="translate(-116.244 -27.184)" fill="#263238"/>
      <path id="Path_41" data-name="Path 41" d="M230.286,397.659l24.609-2.089-.968-7.94-25.646,1.715Z" transform="translate(-105.47 41.638)" fill="#008f87"/>
      <path id="Path_42" data-name="Path 42" d="M221.963,98.174c-.125.982-.761,1.729-1.383,1.66s-1.051-.927-.913-1.923.761-1.729,1.383-1.66S222.1,97.192,221.963,98.174Z" transform="translate(-108.781 -70.043)" fill="#263238"/>
      <path id="Path_43" data-name="Path 43" d="M213.8,97.53c-.124,1-.761,1.729-1.383,1.66s-1.051-.927-.913-1.909.761-1.729,1.383-1.66S213.942,96.493,213.8,97.53Z" transform="translate(-111.908 -70.285)" fill="#263238"/>
      <path id="Path_44" data-name="Path 44" d="M217.108,97.84a34.334,34.334,0,0,1-5.948,6.916c1.466,1.535,4.5,1.12,4.5,1.12Z" transform="translate(-112.031 -69.433)" fill="#ed893e"/>
      <path id="Path_45" data-name="Path 45" d="M208.005,97.18c-.208,1.577,1.383,2.891,3.583,3.168s4.233-.927,4.427-2.5" transform="translate(-113.248 -69.686)" fill="#008f87" opacity="0.4"/>
      <path id="Path_46" data-name="Path 46" d="M217.461,98.24c-.3,1.563,1.231,2.974,3.389,3.389s4.274-.692,4.565-2.241" transform="translate(-109.631 -69.279)" fill="#008f87" opacity="0.4"/>
      <path id="Path_47" data-name="Path 47" d="M225.417,102.51a6.765,6.765,0,0,1-.747,0,5.257,5.257,0,0,1-2.863-1.286,2.877,2.877,0,0,1-1-2.448,6.917,6.917,0,0,0-2.213-.553,4.827,4.827,0,0,0-2.338,0c-.194,1.688-2.3,2.85-4.648,2.559a5.146,5.146,0,0,1-2.863-1.273,2.905,2.905,0,0,1-1-2.448l.664.083a2.227,2.227,0,0,0,.789,1.881,4.482,4.482,0,0,0,2.49,1.093c1.992.263,3.763-.664,3.942-2.047.1-.775,1.7-.719,3.029-.553s2.9.539,2.767,1.3a2.213,2.213,0,0,0,.788,1.881,4.758,4.758,0,0,0,5.187.664,2.213,2.213,0,0,0,1.245-1.618v-.332l17.07,2.2-.083.664-16.433-2.116a2.974,2.974,0,0,1-1.522,1.784A4.883,4.883,0,0,1,225.417,102.51Z" transform="translate(-113.341 -69.731)" fill="#263238"/>
      <path id="Path_48" data-name="Path 48" d="M225.7,95.55a.5.5,0,0,0,.277-.083.6.6,0,0,0,.221-.8,5.533,5.533,0,0,0-4.344-2.9.6.6,0,0,0-.622.553.581.581,0,0,0,.54.609h0a4.44,4.44,0,0,1,3.417,2.352.567.567,0,0,0,.512.277Z" transform="translate(-108.172 -71.763)" fill="#263238"/>
      <path id="Path_49" data-name="Path 49" d="M210.661,94.264a.6.6,0,0,0,.512-.207,4.717,4.717,0,0,1,3.818-1.854.581.581,0,0,0,.636-.526.567.567,0,0,0-.5-.636,5.948,5.948,0,0,0-4.841,2.282.581.581,0,0,0,.069.816A.7.7,0,0,0,210.661,94.264Z" transform="translate(-112.418 -72.039)" fill="#263238"/>
      <path id="Path_50" data-name="Path 50" d="M284.111,324.739c-10.582-54.391-12.961-96.926-23-117.579l-49.4,5.533S241.132,293.74,255.5,328.335c14.926,35.965,44.389,97.411,44.389,97.411h24.678S301.54,349.513,284.111,324.739Z" transform="translate(-111.82 -27.532)" fill="#263238"/>
      <path id="Path_51" data-name="Path 51" d="M155.215,144.442l-5.339-3.375a4.454,4.454,0,0,0-5.616.65l-3.624,3.818a4.15,4.15,0,0,0,.36,6.045l2.587,2.213a21.094,21.094,0,0,0,7.7,4.15l7.816,2.31,5.132-5.533C165.8,148.951,155.215,144.442,155.215,144.442Z" transform="translate(-139.498 -53.137)" fill="#ffb573"/>
      <path id="Path_52" data-name="Path 52" d="M231.181,143.364c-1.937,4.731-3.832,9.13-5.893,13.625s-4.15,8.936-6.46,13.349-4.772,8.8-7.567,13.2a75.832,75.832,0,0,1-4.662,6.571,41.969,41.969,0,0,1-6.363,6.6,22.836,22.836,0,0,1-5.1,3.154c-.581.221-1.12.443-1.757.636l-.968.263a11.548,11.548,0,0,1-1.48.263,13.832,13.832,0,0,1-5.035-.36,20.5,20.5,0,0,1-5.782-2.642,33.207,33.207,0,0,1-3.8-2.767,90.909,90.909,0,0,1-11-11.44c-3.223-3.873-6.266-7.76-9.185-11.73s-5.727-7.871-8.6-12.035l15.3-9.877a206.349,206.349,0,0,0,15.991,22.34,75.308,75.308,0,0,0,8.812,9.116,17.377,17.377,0,0,0,1.95,1.383c.512.346,1.024.484.664.36a3.542,3.542,0,0,0-1.494-.083,3.288,3.288,0,0,0-.595.111h-.194a8.383,8.383,0,0,0,.9-.678,25.52,25.52,0,0,0,3.417-3.79c1.176-1.577,2.352-3.348,3.472-5.187a126.869,126.869,0,0,0,6.252-11.813c1.937-4.15,3.8-8.3,5.533-12.615s3.375-8.7,4.772-12.892Z" transform="translate(-136.423 -54.646)" fill="#008f87"/>
      <g id="Group_2" data-name="Group 2" transform="translate(11.097 81.774)" opacity="0.6">
        <path id="Path_53" data-name="Path 53" d="M231.181,143.364c-1.937,4.731-3.832,9.13-5.893,13.625s-4.15,8.936-6.46,13.349-4.772,8.8-7.567,13.2a75.832,75.832,0,0,1-4.662,6.571,41.969,41.969,0,0,1-6.363,6.6,22.836,22.836,0,0,1-5.1,3.154c-.581.221-1.12.443-1.757.636l-.968.263a11.548,11.548,0,0,1-1.48.263,13.832,13.832,0,0,1-5.035-.36,20.5,20.5,0,0,1-5.782-2.642,33.207,33.207,0,0,1-3.8-2.767,90.909,90.909,0,0,1-11-11.44c-3.223-3.873-6.266-7.76-9.185-11.73s-5.727-7.871-8.6-12.035l15.3-9.877a206.349,206.349,0,0,0,15.991,22.34,75.308,75.308,0,0,0,8.812,9.116,17.377,17.377,0,0,0,1.95,1.383c.512.346,1.024.484.664.36a3.542,3.542,0,0,0-1.494-.083,3.288,3.288,0,0,0-.595.111h-.194a8.383,8.383,0,0,0,.9-.678,25.52,25.52,0,0,0,3.417-3.79c1.176-1.577,2.352-3.348,3.472-5.187a126.869,126.869,0,0,0,6.252-11.813c1.937-4.15,3.8-8.3,5.533-12.615s3.375-8.7,4.772-12.892Z" transform="translate(-147.52 -136.42)" fill="#fff"/>
      </g>
      <path id="Path_54" data-name="Path 54" d="M249.805,126.139c-5.187,9.683-23.654,46.575-25.9,69.344-8.175-20.749-6.391-66.646-6.391-66.646a61.461,61.461,0,0,0-16.973,4.15,10.25,10.25,0,0,0-6.322,8.659,362.515,362.515,0,0,0,2.241,71.2c5.741,44.68,11.066,114.162,11.066,114.162s45.717-1.909,80.991-9.351c-4.3-34.153-19.02-91.393-19.158-106.72-.166-19.726.291-58.291.913-74.393a9.531,9.531,0,0,0-7.636-9.78A47.82,47.82,0,0,0,249.805,126.139Z" transform="translate(-118.833 -58.654)" fill="#008f87"/>
      <path id="Path_55" data-name="Path 55" d="M249.805,126.14c-5.187,9.683-23.654,46.575-25.9,69.344-8.175-20.749-6.391-66.646-6.391-66.646a61.46,61.46,0,0,0-16.973,4.15,10.25,10.25,0,0,0-6.322,8.659,362.515,362.515,0,0,0,2.241,71.2c5.741,44.68,11.066,114.162,11.066,114.162s45.717-1.909,80.991-9.351c-4.3-34.153-19.02-91.393-19.158-106.72-.166-19.726.291-58.305.913-74.407a9.379,9.379,0,0,0-7.207-9.683A47.46,47.46,0,0,0,249.805,126.14Z" transform="translate(-118.833 -58.655)" fill="#fff" opacity="0.7"/>
      <path id="Path_56" data-name="Path 56" d="M230.476,298.032c-7.94-43.808-14.234-108.089-14.746-115.822h.705c.512,7.733,6.82,71.931,14.746,115.739Z" transform="translate(-110.28 -37.095)" fill="#fff"/>
      <path id="Path_57" data-name="Path 57" d="M240.155,229.42H197.993a3.942,3.942,0,0,1-3.652-3l-14.1-65.526a2.352,2.352,0,0,1,2.352-3h42.149a3.942,3.942,0,0,1,3.666,3l14.1,65.526a2.352,2.352,0,0,1-2.352,3Z" transform="translate(-123.916 -46.417)" fill="#fff"/>
      <path id="Path_58" data-name="Path 58" d="M239.492,230.157H196.611a4.025,4.025,0,0,1-3.721-3.057l-14.345-66.633a2.407,2.407,0,0,1,2.407-3.057h42.882a4.025,4.025,0,0,1,3.721,3.057L241.885,227.1a2.393,2.393,0,0,1-2.393,3.057Z" transform="translate(-124.566 -46.601)" fill="#008f87"/>
      <path id="Path_59" data-name="Path 59" d="M232.383,182.933l-10.665-.4a9.143,9.143,0,0,0-3.749.664l-5.533,2.213a4.15,4.15,0,0,0-2.269,5.533l2.213,4.786a4.482,4.482,0,0,0,5.118,2.407l6.1-1.522s11.454-.913,11.869-6.916Z" transform="translate(-112.547 -36.974)" fill="#ffb573"/>
      <path id="Path_60" data-name="Path 60" d="M256.914,130.38c2.642,4.15,5.063,7.94,7.442,12.007s4.717,8.092,6.916,12.3,4.288,8.549,6.183,13.2a67.215,67.215,0,0,1,2.518,7.456,31.249,31.249,0,0,1,1.217,9.5v.539a2.648,2.648,0,0,1,0,.277,7.985,7.985,0,0,1-.235,1.494c-.1.5-.221.885-.36,1.383a9.541,9.541,0,0,1-.443,1.148,15.448,15.448,0,0,1-2.02,3.348,24.136,24.136,0,0,1-3.832,3.818,50.364,50.364,0,0,1-6.916,4.579,131.792,131.792,0,0,1-13.169,6.28c-4.357,1.854-8.7,3.541-13.072,5.132s-8.673,3.126-13.224,4.648l-5.27-17.429c4.15-1.134,8.383-2.531,12.519-3.942s8.3-2.988,12.228-4.634a107.779,107.779,0,0,0,11.26-5.436,32.49,32.49,0,0,0,4.385-2.919,5.266,5.266,0,0,0,.968-.954,1.479,1.479,0,0,0-.277.456.908.908,0,0,1-.138.36,3.273,3.273,0,0,0-.124.5,3.362,3.362,0,0,0-.111.65v-.028a16.267,16.267,0,0,0-.761-3.859,49.91,49.91,0,0,0-1.964-5.326,108.026,108.026,0,0,0-5.727-11.163c-2.158-3.707-4.454-7.414-6.916-11.066s-4.98-7.29-7.511-10.61Z" transform="translate(-107.627 -56.961)" fill="#008f87"/>
      <g id="Group_3" data-name="Group 3" transform="translate(115.023 73.419)" opacity="0.7">
        <path id="Path_61" data-name="Path 61" d="M256.914,130.38c2.642,4.15,5.063,7.94,7.442,12.007s4.717,8.092,6.916,12.3,4.288,8.549,6.183,13.2a67.215,67.215,0,0,1,2.518,7.456,31.249,31.249,0,0,1,1.217,9.5v.539a2.648,2.648,0,0,1,0,.277,7.985,7.985,0,0,1-.235,1.494c-.1.5-.221.885-.36,1.383a9.541,9.541,0,0,1-.443,1.148,15.448,15.448,0,0,1-2.02,3.348,24.136,24.136,0,0,1-3.832,3.818,50.364,50.364,0,0,1-6.916,4.579,131.792,131.792,0,0,1-13.169,6.28c-4.357,1.854-8.7,3.541-13.072,5.132s-8.673,3.126-13.224,4.648l-5.27-17.429c4.15-1.134,8.383-2.531,12.519-3.942s8.3-2.988,12.228-4.634a107.779,107.779,0,0,0,11.26-5.436,32.49,32.49,0,0,0,4.385-2.919,5.266,5.266,0,0,0,.968-.954,1.479,1.479,0,0,0-.277.456.908.908,0,0,1-.138.36,3.273,3.273,0,0,0-.124.5,3.362,3.362,0,0,0-.111.65v-.028a16.267,16.267,0,0,0-.761-3.859,49.91,49.91,0,0,0-1.964-5.326,108.026,108.026,0,0,0-5.727-11.163c-2.158-3.707-4.454-7.414-6.916-11.066s-4.98-7.29-7.511-10.61Z" transform="translate(-222.65 -130.38)" fill="#fff"/>
      </g>
      <path id="Path_62" data-name="Path 62" d="M242.665,177.2a.554.554,0,0,1-.29-1.024l2.158-1.383a11.758,11.758,0,0,0,5.256-12.256l-4.343-21.994a7.442,7.442,0,0,0-14.469-.609L224.821,161.5a11.716,11.716,0,0,0,4.15,12.643l2.047,1.549a.553.553,0,0,1,.1.775.539.539,0,0,1-.761.1l-1.937-1.535a12.837,12.837,0,0,1-4.606-13.833l6.169-21.565a8.549,8.549,0,0,1,16.6.692l4.343,22.008a12.837,12.837,0,0,1-5.741,13.39l-2.172,1.383A.456.456,0,0,1,242.665,177.2Z" transform="translate(-107.378 -55.785)" fill="#263238"/>
      <path id="Path_63" data-name="Path 63" d="M244.15,139.4h0l-15.534-.65a.553.553,0,0,1-.526-.581.581.581,0,0,1,.581-.526l15.52.65a.553.553,0,0,1,.526.581.539.539,0,0,1-.567.526Z" transform="translate(-105.543 -54.178)" fill="#263238"/>
      <path id="Path_64" data-name="Path 64" d="M235.452,137.086a.567.567,0,0,1-.553-.539c0-2.767-.858-7.567-3.444-8.618a.553.553,0,1,1,.415-1.024c3.832,1.577,4.15,8.8,4.15,9.683a.567.567,0,0,1-.54.567Z" transform="translate(-104.397 -58.313)" fill="#263238"/>
      <path id="Path_65" data-name="Path 65" d="M200.043,155.708h-.111a.553.553,0,0,1-.429-.65c1.826-9.088,9.379-23.433,16.032-27.666a.54.54,0,0,1,.747.18.526.526,0,0,1-.166.747c-6.432,4.067-13.764,17.983-15.534,26.932A.553.553,0,0,1,200.043,155.708Z" transform="translate(-116.503 -58.137)" fill="#263238"/>
      <path id="Path_66" data-name="Path 66" d="M204.729,150.3c-.858,2.2-2.767,3.527-4.15,2.96s-1.923-2.767-1.065-5.021,2.767-3.527,4.15-2.946S205.6,148.1,204.729,150.3Z" transform="translate(-116.653 -51.3)" fill="#fff"/>
      <path id="Path_67" data-name="Path 67" d="M230.257,164.893c0,1.024-.636,1.84-1.314,1.812s-1.2-.885-1.162-1.923.636-1.854,1.314-1.812S230.3,163.856,230.257,164.893Z" transform="translate(-105.662 -44.47)" fill="#fff"/>
      <path id="Path_68" data-name="Path 68" d="M238.873,165.253c0,1.024-.622,1.84-1.314,1.812s-1.19-.885-1.148-1.923.622-1.84,1.383-1.812S238.914,164.257,238.873,165.253Z" transform="translate(-102.354 -44.332)" fill="#fff"/>
    </g>
    <g id="freepik--Chat--inject-33" transform="translate(373.61 163.144)">
      <path id="Path_69" data-name="Path 69" d="M414.09,157.623l-1.383-.083a21.316,21.316,0,0,0-21.427-22.976V133.18a22.686,22.686,0,0,1,22.81,24.443Z" transform="translate(-223.64 -133.179)" fill="#008f87"/>
      <rect id="Rectangle_28" data-name="Rectangle 28" width="11.482" height="1.387" transform="translate(190.378 41.697) rotate(-85.996)" fill="#008f87"/>
      <path id="Path_70" data-name="Path 70" d="M423.687,136.68H328.241a21,21,0,0,0-20.583,19.283l-.871,12.851A17.858,17.858,0,0,0,324.768,188.1h95.446l18.508,11.412,2.933-43.546a17.844,17.844,0,0,0-17.969-19.283Z" transform="translate(-256.047 -131.838)" fill="#008f87"/>
      <rect id="Rectangle_29" data-name="Rectangle 29" width="88.405" height="3.209" transform="translate(74.393 23.254)" fill="#fff"/>
      <rect id="Rectangle_30" data-name="Rectangle 30" width="65.637" height="3.209" transform="translate(96.387 34.638)" fill="#fff"/>
      <path id="Path_71" data-name="Path 71" d="M294.145,186.38h97.549a18.245,18.245,0,0,1,18.384,19.712l-.885,13.141a21.482,21.482,0,0,1-21.04,19.712H290.59l-20.5,11.689,3.016-44.542A21.469,21.469,0,0,1,294.145,186.38Z" transform="translate(-270.09 -112.789)" fill="#fff"/>
      <path id="Path_72" data-name="Path 72" d="M294.145,186.38h97.549a18.245,18.245,0,0,1,18.384,19.712l-.885,13.141a21.482,21.482,0,0,1-21.04,19.712H290.59l-20.5,11.689,3.016-44.542A21.469,21.469,0,0,1,294.145,186.38Z" transform="translate(-270.09 -112.789)" fill="#008f87" opacity="0.15"/>
      <rect id="Rectangle_31" data-name="Rectangle 31" width="90.411" height="3.292" transform="translate(26.241 92.418)" fill="#008f87" opacity="0.5"/>
      <rect id="Rectangle_32" data-name="Rectangle 32" width="35.73" height="3.292" transform="translate(25.452 104.051)" fill="#008f87" opacity="0.5"/>
      <rect id="Rectangle_33" data-name="Rectangle 33" width="22.824" height="3.292" transform="translate(69.939 104.051)" fill="#008f87" opacity="0.5"/>
    </g>
  </g>
</svg>
